<svg xmlns="http://www.w3.org/2000/svg" width="512" height="512" viewBox="0 0 512 512"><path d="M438.178 410.664c0 8.913-7.226 16.139-16.14 16.139h-65.246a136.489 136.489 0 00-79.08 24.9l-11.99 8.3a15.677 15.677 0 01-18.444 0l-11.99-8.3a136.95 136.95 0 00-79.08-24.9H90.961c-8.913 0-16.139-7.226-16.139-16.14 0-8.912 7.226-16.138 16.14-16.138h65.246a169.92 169.92 0 0197.525 30.664l2.767 2.075 2.536-1.845a168.997 168.997 0 0197.756-31.586h65.247a16.139 16.139 0 0116.139 16.83zM464 64.139v279.894c0 8.914-7.226 16.14-16.139 16.14h-103.98a139.947 139.947 0 00-78.39 23.055h-3.458a13.833 13.833 0 01-11.066 0h-3.459a139.947 139.947 0 00-78.389-23.056H65.14c-8.913 0-16.139-7.225-16.139-16.139V64.14C49 55.226 56.226 48 65.139 48h103.98A172.917 172.917 0 01256.5 71.056 172.917 172.917 0 01343.88 48h103.981C456.774 48 464 55.226 464 64.139zM169.12 327.894a172.225 172.225 0 0171.241 15.448V99.875a140.87 140.87 0 00-71.242-19.597H81.278v247.616h87.841zM431.721 80.278H343.88a140.87 140.87 0 00-71.242 19.597v243.467a172.225 172.225 0 0171.242-15.448h87.841V80.278z"/></svg>