<svg xmlns="http://www.w3.org/2000/svg" width="508" height="311" fill="none" viewBox="0 0 508 311"><g clip-path="url(#clip0)"><path fill="#fff" d="M508 .535H0v310.32h508V.535z" opacity=".01"/><path fill="#EBEFF3" d="M428.514 104.797c5.882-7.918 9.266-17.187 9.266-27.109 0-28.925-28.756-52.378-64.232-52.378s-64.232 23.453-64.232 52.378v.13a6.42 6.42 0 01-4.781 6.256 126.229 126.229 0 00-30.094 12.255 6.357 6.357 0 01-8.985-3.14c-17.841-42.349-63.752-72.5-117.591-72.5-69.335 0-125.54 50.003-125.54 111.665 0 61.661 56.206 111.697 125.54 111.697 33.212 0 63.412-11.477 85.862-30.212a6.36 6.36 0 014.802-1.458 6.354 6.354 0 014.36 2.483c19.724 26.518 56.141 44.311 97.811 44.311 62.662 0 113.461-40.24 113.461-89.898 0-21.287-9.344-40.841-24.957-56.24a6.318 6.318 0 01-.69-8.24zm35.906 17.908a8.342 8.342 0 10-3.835-16.239c-4.486 1.059-7.265 5.552-6.206 10.036 1.059 4.484 5.554 7.261 10.041 6.203zm-28.692 144.429c6.2-1.462 10.04-7.671 8.577-13.868-1.464-6.197-7.676-10.034-13.876-8.572-6.201 1.463-10.041 7.672-8.577 13.868 1.463 6.197 7.676 10.035 13.876 8.572z"/><path fill="#fff" d="M344.867 18.519H150.438a4.29 4.29 0 00-4.292 4.29v136.598a4.29 4.29 0 004.292 4.29h194.429a4.291 4.291 0 004.292-4.29V22.809a4.29 4.29 0 00-4.292-4.29z"/><path fill="#374550" d="M326.057 164.312h-146.09a.608.608 0 01-.61-.61.61.61 0 01.61-.611h146.09a.614.614 0 01.611.611.612.612 0 01-.611.61zm23.102-3.694a.61.61 0 01-.61-.61V22.218a3.089 3.089 0 00-3.086-3.084H149.841a3.09 3.09 0 00-3.085 3.083v99.424a.614.614 0 01-1.029.399.618.618 0 01-.197-.399V22.217a4.316 4.316 0 014.311-4.308h195.622a4.314 4.314 0 014.307 4.308v137.791a.602.602 0 01-.179.431.616.616 0 01-.432.179z"/><path fill="#374550" d="M149.841 18.519h195.622a3.693 3.693 0 013.696 3.694v13.382H146.146V22.217a3.688 3.688 0 013.695-3.698z"/><path fill="#fff" d="M154.702 30.685a3.63 3.63 0 003.631-3.628 3.63 3.63 0 00-7.261 0 3.63 3.63 0 003.63 3.628zm11.959 0a3.63 3.63 0 003.631-3.628 3.63 3.63 0 00-7.261 0 3.63 3.63 0 003.63 3.628zm11.964 0a3.63 3.63 0 100-7.257 3.63 3.63 0 00-3.631 3.629 3.63 3.63 0 003.631 3.628zm148.313 53.641H167.719a2.088 2.088 0 00-2.088 2.087v25.707c0 1.152.935 2.086 2.088 2.086h159.219a2.087 2.087 0 002.088-2.086V86.413a2.088 2.088 0 00-2.088-2.087z"/><path fill="#414042" d="M326.937 114.467H167.724a2.357 2.357 0 01-2.354-2.329V86.413a2.35 2.35 0 012.354-2.33h159.213a2.331 2.331 0 012.331 2.33v25.702a2.33 2.33 0 01-2.331 2.352zm-159.213-29.88a1.834 1.834 0 00-1.827 1.826v25.702a1.828 1.828 0 001.827 1.831h159.213a1.831 1.831 0 001.827-1.831V86.413a1.83 1.83 0 00-1.827-1.826H167.724z"/><path fill="#fff" d="M198.343 99.841c0-6.413-5.201-11.612-11.618-11.612-6.417 0-11.619 5.2-11.619 11.612 0 6.414 5.202 11.613 11.619 11.613s11.618-5.199 11.618-11.613z"/><path fill="#92A2B1" d="M186.725 111.803a11.98 11.98 0 01-6.65-2.016 11.961 11.961 0 01-5.089-12.28 11.96 11.96 0 019.404-9.397 11.976 11.976 0 0112.286 5.086 11.957 11.957 0 012.017 6.645 11.982 11.982 0 01-11.968 11.962zm0-23.224a11.273 11.273 0 00-10.412 6.952 11.256 11.256 0 002.443 12.274 11.269 11.269 0 0012.281 2.442 11.26 11.26 0 003.655-18.371 11.284 11.284 0 00-7.967-3.307v.01z"/><path fill="#fff" d="M185.406 104.299h2.638v.783a1.321 1.321 0 01-1.319 1.318 1.318 1.318 0 01-1.319-1.318v-.783z"/><path fill="#92A2B1" d="M186.725 106.735a1.662 1.662 0 01-1.18-.488 1.656 1.656 0 01-.488-1.179v-1.128h3.337v1.132a1.667 1.667 0 01-1.669 1.663zm-.969-2.101v.434a.968.968 0 001.655.685.972.972 0 00.284-.685v-.434h-1.939z"/><path fill="#fff" d="M191.931 102.576a.85.85 0 01-.632-.226.863.863 0 01-.273-.613v-2.794a4.306 4.306 0 00-3.239-4.193.602.602 0 01-.466-.582v-.326a.6.6 0 10-1.197 0v.322a.611.611 0 01-.466.582 4.309 4.309 0 00-3.263 4.192v2.706a.893.893 0 01-.239.653.883.883 0 01-.637.279.54.54 0 00-.512.322.535.535 0 00-.043.209v.661a.531.531 0 00.532.531h10.425a.542.542 0 00.394-.164.55.55 0 00.161-.395v-.605a.56.56 0 00-.545-.559z"/><path fill="#92A2B1" d="M191.926 104.648H181.5a.88.88 0 01-.88-.88v-.661a.873.873 0 01.277-.64.882.882 0 01.655-.241.385.385 0 00.331-.13.614.614 0 00.181-.433v-2.707a4.657 4.657 0 013.528-4.513.254.254 0 00.201-.242v-.322a.947.947 0 011.897 0v.326a.246.246 0 00.195.243 4.66 4.66 0 013.505 4.508v2.795a.504.504 0 00.356.445c.064.02.132.027.199.021a.93.93 0 01.899.932v.605a.894.894 0 01-.273.638.901.901 0 01-.645.256zm-10.426-1.723a.179.179 0 00-.125.051.173.173 0 00-.056.131v.661a.18.18 0 00.053.128c.034.035.08.054.128.054h10.426a.212.212 0 00.145-.063.207.207 0 00.06-.147v-.605a.196.196 0 00-.014-.08.206.206 0 00-.191-.13 1.206 1.206 0 01-.877-.329 1.21 1.21 0 01-.372-.859v-2.795a3.945 3.945 0 00-2.978-3.828.96.96 0 01-.722-.932v-.326a.254.254 0 00-.25-.286.251.251 0 00-.249.286v.321a.962.962 0 01-.732.932 3.939 3.939 0 00-2.996 3.833v2.707a1.307 1.307 0 01-.397.931 1.14 1.14 0 01-.843.326l-.01.019zm46.895-6.409h-20.632a1.633 1.633 0 01-1.632-1.63 1.63 1.63 0 011.632-1.63h20.632a1.632 1.632 0 011.153 2.782 1.632 1.632 0 01-1.153.478zm33.425 0h-25.292a1.633 1.633 0 01-1.632-1.63 1.63 1.63 0 011.632-1.63h25.292a1.633 1.633 0 011.632 1.63 1.63 1.63 0 01-1.632 1.63zm27.162 9.781h-81.219a1.63 1.63 0 110-3.26h81.219a1.633 1.633 0 011.631 1.63 1.631 1.631 0 01-1.631 1.63z"/><path fill="#fff" d="M326.938 120.658H167.719a2.087 2.087 0 00-2.088 2.086v25.708c0 1.152.935 2.086 2.088 2.086h159.219a2.087 2.087 0 002.088-2.086v-25.708a2.087 2.087 0 00-2.088-2.086z"/><path fill="#414042" d="M326.937 150.799H167.724a2.357 2.357 0 01-2.354-2.352v-25.703a2.35 2.35 0 012.354-2.328h159.213a2.33 2.33 0 012.331 2.328v25.703a2.32 2.32 0 01-.675 1.662 2.326 2.326 0 01-1.656.69zm-159.213-29.88a1.834 1.834 0 00-1.827 1.825v25.703a1.828 1.828 0 001.827 1.83h159.213a1.831 1.831 0 001.827-1.83v-25.703a1.83 1.83 0 00-1.827-1.825H167.724z"/><path fill="#fff" d="M198.343 136.173c0-6.413-5.201-11.612-11.618-11.612-6.417 0-11.619 5.199-11.619 11.612s5.202 11.612 11.619 11.612 11.618-5.199 11.618-11.612z"/><path fill="#92A2B1" d="M186.725 148.135a11.966 11.966 0 01-11.058-7.384 11.96 11.96 0 018.723-16.309 11.974 11.974 0 0112.286 5.086 11.955 11.955 0 012.017 6.645 11.982 11.982 0 01-11.968 11.962zm0-23.225a11.27 11.27 0 00-10.412 6.953 11.254 11.254 0 002.443 12.274 11.276 11.276 0 0012.281 2.442 11.264 11.264 0 003.655-18.372 11.286 11.286 0 00-7.967-3.306v.009z"/><path fill="#fff" d="M185.406 140.631h2.638v.782a1.322 1.322 0 01-1.319 1.319 1.318 1.318 0 01-1.319-1.319v-.782z"/><path fill="#92A2B1" d="M186.725 143.067a1.667 1.667 0 01-1.668-1.668v-1.127h3.337v1.132a1.67 1.67 0 01-1.669 1.663zm-.969-2.101v.433a.97.97 0 101.939 0v-.433h-1.939z"/><path fill="#fff" d="M191.931 138.908a.867.867 0 01-.632-.226.874.874 0 01-.273-.613v-2.795c0-.955-.319-1.883-.906-2.638a4.316 4.316 0 00-2.333-1.531.597.597 0 01-.466-.582v-.326a.601.601 0 00-1.024-.424.58.58 0 00-.173.424v.322a.612.612 0 01-.466.582 4.306 4.306 0 00-3.263 4.192v2.706a.89.89 0 01-.529.858.9.9 0 01-.347.074.54.54 0 00-.512.322.535.535 0 00-.043.209v.661a.531.531 0 00.532.531h10.425a.56.56 0 00.394-.164.55.55 0 00.161-.395v-.605a.56.56 0 00-.545-.582z"/><path fill="#92A2B1" d="M191.926 140.98H181.5a.88.88 0 01-.88-.88v-.662a.872.872 0 01.277-.639.882.882 0 01.655-.241.41.41 0 00.331-.13.615.615 0 00.181-.434v-2.706a4.66 4.66 0 013.528-4.513.258.258 0 00.201-.243v-.321a.948.948 0 011.897 0v.326a.245.245 0 00.195.242 4.655 4.655 0 013.505 4.509v2.795a.515.515 0 00.172.364.495.495 0 00.383.125.931.931 0 01.899.908v.606a.894.894 0 01-.273.638.898.898 0 01-.645.256zm-10.426-1.723a.179.179 0 00-.125.051.173.173 0 00-.056.13v.662a.18.18 0 00.181.181h10.426a.204.204 0 00.145-.063.205.205 0 00.06-.146v-.606a.202.202 0 00-.125-.193.204.204 0 00-.08-.016 1.206 1.206 0 01-.877-.329 1.204 1.204 0 01-.372-.859v-2.795a3.947 3.947 0 00-2.978-3.829.958.958 0 01-.722-.931v-.326a.252.252 0 00-.009-.106.24.24 0 00-.137-.157.247.247 0 00-.208 0 .242.242 0 00-.085.063.252.252 0 00-.06.2v.321a.965.965 0 01-.732.932 3.939 3.939 0 00-2.996 3.833v2.706a1.312 1.312 0 01-.397.932 1.14 1.14 0 01-.843.326l-.01.019zm46.895-6.41h-20.632a1.63 1.63 0 110-3.26h20.632a1.635 1.635 0 011.631 1.63 1.63 1.63 0 01-1.631 1.63zm33.425 0h-25.292a1.63 1.63 0 110-3.26h25.292a1.631 1.631 0 110 3.26zm27.162 9.782h-81.219a1.631 1.631 0 110-3.26h81.219a1.629 1.629 0 011.153 2.783c-.306.305-.72.477-1.153.477z"/><path fill="#273139" d="M403.506 133.22h-.051a.361.361 0 01-.261-.158c-.881-1.253-1.939-3.093-2.96-4.877-1.02-1.784-2.064-3.596-2.927-4.821a.369.369 0 01-.062-.283.372.372 0 01.156-.243.38.38 0 01.531.093c.881 1.253 1.939 3.093 2.959 4.877.932 1.607 1.865 3.26 2.69 4.476 2.05-1.71 4.45-3.82 6.776-5.864 2.326-2.045 4.73-4.165 6.786-5.879l-23.177-23.587a.38.38 0 01.545-.531l23.466 23.89a.361.361 0 01.083.131.392.392 0 01-.111.428c-2.116 1.751-4.661 3.978-7.093 6.13-2.433 2.152-4.987 4.383-7.108 6.144a.388.388 0 01-.242.074z"/><path fill="#273139" d="M395.308 103.777l3.658 20.942-1.529-1.108-2.129-19.834z"/><path fill="#fff" d="M367.135 76.147a3.648 3.648 0 10.001-7.297 3.648 3.648 0 00-.001 7.297z"/><path fill="#273139" d="M367.135 76.575a4.079 4.079 0 01-4.005-4.868 4.077 4.077 0 018.078.792 4.083 4.083 0 01-4.073 4.076zm0-7.294a3.228 3.228 0 00-2.983 1.987 3.221 3.221 0 002.35 4.398 3.23 3.23 0 003.312-1.374 3.221 3.221 0 00-.403-4.067 3.226 3.226 0 00-2.276-.944z"/><path fill="#273139" d="M369.931 68.857c-2.181-.186-4.344-1.323-5.434-3.223-1.091-1.9-.881-4.551.722-6.056 1.888-1.746 4.819-1.472 7.359-1.08l5.015.764a4.8 4.8 0 011.72.465c1.398.806 1.584 2.795.876 4.244-1.645 3.363-6.8 5.175-10.258 4.886zm11.456 108.245l-11.563 39.42.145-1.728 1.16 49.668a3.392 3.392 0 01-6.767.466l-5.705-49.374a4.08 4.08 0 01.042-1.188l.107-.54 7.788-40.333a7.596 7.596 0 011.123-2.752 7.623 7.623 0 0113.826 2.668c.2.98.206 1.989.016 2.971a6.965 6.965 0 01-.172.722zm16.228-1.56l-3.212 41.456-.093-1.212 6.66 48.294a3.392 3.392 0 01-6.664 1.239l-11.144-47.455a3.4 3.4 0 01-.084-.666v-.545l-.666-41.577a7.606 7.606 0 014.555-7.239 7.61 7.61 0 015.897-.094 7.62 7.62 0 014.783 7.091c-.004.233-.014.48-.032.708zM385.894 61.004h-.033a.43.43 0 01-.396-.433c.07-3.01-1.492-8.506-4.102-10.248a.424.424 0 11.476-.703c2.256 1.523 3.766 5.375 4.283 8.552a9.815 9.815 0 014.838-5.068.417.417 0 01.325-.013.42.42 0 01.238.222.416.416 0 01-.205.564 8.938 8.938 0 00-5.005 6.745.424.424 0 01-.419.382z"/><path fill="#fff" d="M367.536 72.56a13.18 13.18 0 0018.367 12.135 13.183 13.183 0 006.334-5.712 1.61 1.61 0 00.102-.172 13.156 13.156 0 00.457-11.554 13.176 13.176 0 00-14.773-7.582 13.184 13.184 0 00-9.129 7.104 13.178 13.178 0 00-1.34 5.781h-.018z"/><path fill="#273139" d="M380.725 86.157a13.627 13.627 0 01-9.62-3.985 13.609 13.609 0 01-3.994-9.612 13.602 13.602 0 013.993-9.612 13.616 13.616 0 019.621-3.98 13.613 13.613 0 0111.659 6.628 13.595 13.595 0 01.309 13.401l-.028.047a.838.838 0 01-.093.154 13.598 13.598 0 01-11.847 6.959zm0-26.336a12.755 12.755 0 00-11.069 6.404 12.737 12.737 0 004.776 17.428 12.757 12.757 0 0017.413-4.865l.042-.066a.21.21 0 00.028-.046l.032-.06a12.725 12.725 0 00-.274-12.576 12.745 12.745 0 00-10.948-6.205v-.014z"/><path fill="#273139" d="M369.638 66.747a14.609 14.609 0 004.283 10.33 14.626 14.626 0 0010.337 4.277 14.454 14.454 0 007.96-2.37c.038-.056.072-.113.103-.173a13.173 13.173 0 00-4.779-17.669 13.189 13.189 0 00-9.759-1.52 13.178 13.178 0 00-8.075 5.681c-.042.49-.07.969-.07 1.444z"/><path fill="#FF5959" d="M386.868 59.923a12.997 12.997 0 00-1.985 5.823 13.178 13.178 0 003.831 10.559c.349.347.72.672 1.109.973a8.891 8.891 0 01-5.899-2.004 8.88 8.88 0 012.944-15.342v-.009z"/><path fill="#273139" d="M383.097 67.66a10.577 10.577 0 006.534 9.78 10.593 10.593 0 0011.541-2.29 10.584 10.584 0 002.297-11.534A10.593 10.593 0 00386.2 60.18a10.582 10.582 0 00-3.103 7.48z"/><path fill="#EBEFF3" d="M390.922 219.117a6.788 6.788 0 01-1.612-.191.289.289 0 01-.182-.135.281.281 0 01-.039-.108.302.302 0 01.138-.298.28.28 0 01.108-.038.28.28 0 01.115.006 6.405 6.405 0 005.713-1.453.294.294 0 11.401.433 6.915 6.915 0 01-4.642 1.784z"/><path fill="#273139" d="M403.473 268.971a11.017 11.017 0 01-5.059 1.761 11.015 11.015 0 01-5.292-.83c-2.633 0-4.996 2.516-10.416 2.516s-6.334 5.864-1.398 5.864l10.071.088a6.489 6.489 0 003.034-.717l3.262-1.672 8.147-.494-2.349-6.516z"/><path fill="#273139" d="M405.817 276.321v2.194h-8.142v-1.7l8.142-.494z"/><path fill="#EBEFF3" d="M390.881 273.177h-.056a.303.303 0 01-.187-.125.301.301 0 01-.046-.22 1.42 1.42 0 00-.401-1.23 1.444 1.444 0 00-1.203-.465.292.292 0 01-.125.004.299.299 0 01-.203-.137.296.296 0 01-.041-.119.294.294 0 01.295-.335 2.12 2.12 0 012.179 1.481c.095.302.121.622.077.936a.29.29 0 01-.289.21zm-2.256.806h-.061a.305.305 0 01-.233-.35 1.523 1.523 0 00-.402-1.231 1.534 1.534 0 00-1.201-.488.29.29 0 01-.326-.256.279.279 0 01.059-.217.284.284 0 01.197-.109 2.135 2.135 0 011.706.67 2.124 2.124 0 01.55 1.748.308.308 0 01-.104.167.305.305 0 01-.185.066zm-2.326.437h-.056a.288.288 0 01-.234-.229.297.297 0 01.001-.115 1.537 1.537 0 00-.407-1.23 1.54 1.54 0 00-1.201-.489.295.295 0 01-.266-.474.302.302 0 01.196-.113 2.118 2.118 0 011.706.67 2.124 2.124 0 01.55 1.748.296.296 0 01-.289.232zm-20.222-55.303a6.79 6.79 0 01-1.613-.191.297.297 0 01-.182-.135.298.298 0 01-.039-.108.302.302 0 01.007-.116.29.29 0 01.133-.184.289.289 0 01.226-.03 6.397 6.397 0 005.709-1.453.296.296 0 01.495.228.293.293 0 01-.095.205 6.913 6.913 0 01-4.641 1.784z"/><path fill="#273139" d="M372.891 268.971a11.026 11.026 0 01-10.351.931c-2.633 0-4.992 2.516-10.417 2.516s-6.333 5.864-1.398 5.864l10.067.088a6.477 6.477 0 003.034-.717l3.262-1.672 8.142-.494-2.339-6.516z"/><path fill="#273139" d="M375.239 276.321v2.194h-8.146v-1.7l8.146-.494z"/><path fill="#EBEFF3" d="M360.303 273.177h-.061a.29.29 0 01-.228-.345 1.556 1.556 0 00-.408-1.23 1.54 1.54 0 00-1.2-.489.278.278 0 01-.115-.009.288.288 0 01-.178-.14.298.298 0 01-.027-.224.306.306 0 01.14-.178.303.303 0 01.11-.036 2.135 2.135 0 011.706.67 2.124 2.124 0 01.55 1.748.304.304 0 01-.104.167.305.305 0 01-.185.066zm-2.261.806h-.056a.296.296 0 01-.233-.35 1.534 1.534 0 00-.407-1.23 1.544 1.544 0 00-1.2-.488.312.312 0 01-.118-.005.306.306 0 01-.184-.139.31.31 0 01-.037-.111.29.29 0 01.156-.295.279.279 0 01.113-.033 2.012 2.012 0 011.705.671 2.026 2.026 0 01.55 1.747.294.294 0 01-.289.233zm-2.326.437h-.056a.29.29 0 01-.188-.124.297.297 0 01-.045-.22 1.55 1.55 0 00-.951-1.605 1.531 1.531 0 00-.652-.114.307.307 0 01-.242-.042.299.299 0 01.167-.545 2.118 2.118 0 011.706.67 2.119 2.119 0 01.55 1.748.289.289 0 01-.103.167.287.287 0 01-.186.065z"/><path fill="#475867" d="M397.568 172.254h-30.317a2.116 2.116 0 00-1.57.586 2.137 2.137 0 00-.488 2.377 2.125 2.125 0 002.058 1.289h30.294a2.12 2.12 0 001.57-.586 2.13 2.13 0 00-1.57-3.666h.023z"/><path fill="#F8AB59" d="M371.87 173.302h21.676a8.815 8.815 0 008.748-9.838l-7.545-64.647a13.016 13.016 0 00-9.321-10.397 12.82 12.82 0 01-4.721.885 13.02 13.02 0 01-3.561-.493 12.997 12.997 0 00-8.24 11.179l-5.816 63.697a8.796 8.796 0 002.267 6.744 8.812 8.812 0 006.513 2.87z"/><path fill="#273139" d="M359.911 133.22a.389.389 0 01-.242-.088c-2.121-1.761-4.661-3.988-7.107-6.144-2.447-2.157-4.978-4.379-7.094-6.13a.374.374 0 01-.095-.124.377.377 0 01.067-.435l23.466-23.89a.387.387 0 01.267-.114.376.376 0 01.352.231.38.38 0 01-.078.413l-23.168 23.598c2.055 1.714 4.46 3.833 6.791 5.883 2.33 2.049 4.725 4.154 6.776 5.864.969-1.346 2.838-3.759 4.661-6.102 1.971-2.553 4.008-5.189 4.874-6.419a.385.385 0 01.532-.093.388.388 0 01.093.531c-.876 1.244-2.918 3.89-4.894 6.442-1.976 2.553-4.008 5.184-4.87 6.414a.376.376 0 01-.261.158l-.07.005zm48.6 19.279a.371.371 0 01-.275-.116.384.384 0 010-.541c2.796-2.636 5.924-6.162 8.934-9.572 3.011-3.409 6.152-6.958 8.986-9.623a.379.379 0 01.536.536c-2.797 2.641-5.924 6.162-8.934 9.572-3.011 3.409-6.152 6.959-8.986 9.623a.377.377 0 01-.261.121zm-7.429.527a.387.387 0 01-.347-.232.38.38 0 01.072-.411c2.517-2.795 5.281-6.382 7.956-9.842 2.675-3.461 5.453-7.057 7.988-9.88a.376.376 0 01.409-.103.371.371 0 01.215.194.379.379 0 01-.06.417c-2.512 2.795-5.281 6.377-7.951 9.837-2.671 3.461-5.458 7.062-7.988 9.885a.399.399 0 01-.294.135z"/><path fill="#273139" d="M412.338 159.002a11.738 11.738 0 01-7.961-2.958.39.39 0 01-.121-.266.368.368 0 01.103-.274.386.386 0 01.413-.098.378.378 0 01.127.079c2.363 2.208 6.012 3.195 9.517 2.576a.468.468 0 00.382-.466.466.466 0 00-.354-.466c-2.768-.722-6.389-2.976-8.077-5.03a.382.382 0 01.056-.536.388.388 0 01.279-.087.374.374 0 01.257.138c1.571 1.915 5.085 4.104 7.676 4.779.273.071.514.233.683.458a1.243 1.243 0 01-.054 1.55 1.239 1.239 0 01-.713.41c-.731.128-1.471.192-2.213.191z"/><path fill="#273139" d="M403.515 157.507a.974.974 0 01-.755-.364 8.148 8.148 0 01-2.032-4.234.367.367 0 01.013-.147.369.369 0 01.181-.227.37.37 0 01.289-.032.386.386 0 01.227.181.395.395 0 01.045.141 7.4 7.4 0 001.864 3.829.208.208 0 00.261.07.251.251 0 00.154-.27 7.403 7.403 0 01.303-3.023.37.37 0 01.069-.137.381.381 0 01.658.37 6.51 6.51 0 00-.27 2.706 1.02 1.02 0 01-.616 1.053.974.974 0 01-.391.084zm-75.934-35.037a.387.387 0 01-.196-.056c-2.125-1.276-6.166-2.162-8.855-1.929a1.24 1.24 0 01-.727-2.305c3.3-1.863 7.326-2.18 10.509-.797a.387.387 0 01.205.208.386.386 0 01-.004.291.394.394 0 01-.503.2c-2.969-1.295-6.735-1.002-9.83.759a.468.468 0 00-.209.545.463.463 0 00.494.34c2.847-.242 7.019.666 9.293 2.04a.383.383 0 01.16.184.385.385 0 01.014.244.382.382 0 01-.37.276h.019z"/><path fill="#273139" d="M329.123 120.141a.377.377 0 01-.377-.373 6.684 6.684 0 00-.653-2.641 1.012 1.012 0 01.224-1.197.98.98 0 011.17-.121 8.906 8.906 0 013.313 3.624.38.38 0 01-.177.507.355.355 0 01-.143.039.366.366 0 01-.275-.093.386.386 0 01-.09-.118 8.21 8.21 0 00-3.015-3.302.22.22 0 00-.139-.036.22.22 0 00-.131.059.247.247 0 00-.078.145c-.01.055 0 .113.026.162.443.924.691 1.93.727 2.953a.381.381 0 01-.368.392h-.014zm97.369 12.278h-.098a.38.38 0 01-.266-.112l-9.069-9.064a.379.379 0 01.536-.536l8.962 8.957a.38.38 0 01-.065.755zm-6.898 1.239a.345.345 0 01-.186-.051l-8.725-5.031a.373.373 0 01-.128-.094.37.37 0 01-.095-.295.378.378 0 01.301-.333.387.387 0 01.304.065l8.72 5.031a.38.38 0 010 .659.378.378 0 01-.191.049zm-69.978 7.83a.38.38 0 01-.275-.638l7.736-8.273a.384.384 0 01.619.123.379.379 0 01-.083.413l-7.736 8.273a.384.384 0 01-.261.102zm-1.799-.75a.387.387 0 01-.257-.098l-20.236-18.287a.382.382 0 01.513-.563l20.236 18.287a.375.375 0 01.082.413.385.385 0 01-.082.122.387.387 0 01-.116.089.383.383 0 01-.14.037zm.359-6.134a.378.378 0 01-.366-.285.378.378 0 01.04-.288l3.621-6.153a.389.389 0 01.388-.209.384.384 0 01.269.595l-3.621 6.153a.383.383 0 01-.331.187z"/><path fill="#273139" d="M347.742 132.605a.388.388 0 01-.233-.079c-1.291-.978-2.614-1.914-3.891-2.823-3.845-2.724-7.816-5.538-11.451-9.856a.382.382 0 01.582-.466c3.57 4.244 7.504 7.029 11.307 9.726 1.282.909 2.61 1.863 3.915 2.837a.377.377 0 01.129.423.38.38 0 01-.358.262v-.024zm44.9 23.15h-.065a.38.38 0 01-.294-.247 49.616 49.616 0 01-2.209-24.687.378.378 0 01.577-.264.363.363 0 01.17.237.369.369 0 01.003.148 48.84 48.84 0 001.953 23.672l.056-.065a.385.385 0 01.485-.008.385.385 0 01.102.474l-.466.587a.383.383 0 01-.312.153zm-19.22-21.585h-.098a.37.37 0 01-.233-.176.37.37 0 01-.037-.289 69.277 69.277 0 001.556-26.625.383.383 0 01.755-.107 70.165 70.165 0 01-1.575 26.923.384.384 0 01-.368.274zm-3.099-40.752a.391.391 0 01-.359-.247.378.378 0 01.224-.465 37.56 37.56 0 0124.202-.625.381.381 0 01.06.697.38.38 0 01-.289.025 36.81 36.81 0 00-23.708.615.423.423 0 01-.13 0zm13.021-19.903a.435.435 0 01-.331-.158 8.353 8.353 0 01-1.347-8.017.435.435 0 01.217-.25.426.426 0 01.611.373.43.43 0 01-.031.166 7.506 7.506 0 001.212 7.192.425.425 0 01-.331.694z"/><path fill="#fff" d="M380.86 77.926a.18.18 0 01-.07 0 13.158 13.158 0 01-8.533-11.179.213.213 0 01.119-.207.22.22 0 01.163-.01.214.214 0 01.121.105.217.217 0 01.021.08 12.725 12.725 0 008.249 10.792.212.212 0 01.146.236.211.211 0 01-.216.174v.009zm16.866-2.781a.213.213 0 01-.209-.176c-.009-.05 0-.1.024-.144a.216.216 0 01.111-.094 7.333 7.333 0 004.161-9.787 7.333 7.333 0 00-2.465-3.046.213.213 0 01-.046-.298.215.215 0 01.059-.057.21.21 0 01.234.006 7.763 7.763 0 01-1.794 13.582.21.21 0 01-.075.014z"/><path fill="#273139" d="M365.951 72.066a.424.424 0 01-.303-.126l-1.543-1.537a.43.43 0 01.606-.6l1.538 1.541a.427.427 0 01.125.3.432.432 0 01-.125.301.405.405 0 01-.298.121zm1.301 3.74a.435.435 0 01-.299-.12l-1.524-1.556a.427.427 0 01.026-.576.43.43 0 01.576-.03l1.542 1.542a.426.426 0 010 .605.432.432 0 01-.321.135zm-.881 52.398c.508-.313 3.626-6.098 3.826-6.661.2-.564.294-1.505-.275-1.733-1.063.354-3.37 4.732-3.37 4.732l-.181 3.662z"/><path fill="#FE7683" d="M329.692 172.417H154.581a3.997 3.997 0 00-3.998 3.996v.005a3.997 3.997 0 003.998 3.996h175.111a3.997 3.997 0 003.999-3.996v-.005a3.997 3.997 0 00-3.999-3.996z"/><path fill="#131735" d="M165.99 155.397a.598.598 0 01-.41-.159c-15.259-13.974-24.701-31.087-28.896-52.299a.62.62 0 01.082-.461.604.604 0 011.012.005.62.62 0 01.086.223c4.143 20.961 13.483 37.846 28.55 51.647a.602.602 0 01-.405 1.044h-.019zm-15.589 10.242a.613.613 0 01-.429-.172c-7.275-7.276-14.336-18.017-14.406-18.124a.602.602 0 011.007-.657c.07.107 7.061 10.746 14.252 17.929a.605.605 0 010 .852.59.59 0 01-.424.172zm1.272-.507a.61.61 0 01-.522-.303.607.607 0 01.219-.82l12.681-7.308a.604.604 0 01.883.678.606.606 0 01-.281.365l-12.663 7.304a.58.58 0 01-.317.084z"/><path fill="#254682" d="M139.295 153.072l-.331 108.339a9.963 9.963 0 01-2.858 7.169 9.974 9.974 0 01-7.12 2.985 9.976 9.976 0 01-9.965-9.316l-7.079-113.127 27.353 3.95z"/><path fill="#254682" d="M91.65 210.025l6.944-63.008 29.263 8.585-14.065 63.655a9.277 9.277 0 01-2.181 4.215l-30.294 33.365-13.982-13.867 22.017-27.388a10.738 10.738 0 002.297-5.557z"/><path fill="#fff" d="M123.877 97.657l-8.025-.275a16.052 16.052 0 00-10.364 3.344 16.034 16.034 0 00-5.84 9.186l-10.566 40.99c-2.223 9.935 1.757 19.377 15.529 19.377l29.361.791a7.92 7.92 0 008.138-8.193l-2.937-49.998c-.004-11.775-6.986-14.943-15.296-15.222z"/><path fill="#27AAE1" d="M125.746 98.188l-8.021-1.067c-7.708-1.03-15.65 3.564-18.082 10.942l-14.07 40.058c-3.216 9.744-.467 22.642 13.347 24.007l19.495 2.459s7.429.778 7.951-9.73l3.906-60.553s.158-5.53-4.526-6.153"/><path fill="#FEF1E1" d="M125.616 101.108c4.782 0 8.659-2.43 8.659-5.426 0-2.997-3.877-5.427-8.659-5.427-4.783 0-8.659 2.43-8.659 5.427 0 2.997 3.876 5.426 8.659 5.426z"/><path fill="#fff" d="M126.417 97.657c7.223 0 13.078-5.852 13.078-13.07 0-7.219-5.855-13.07-13.078-13.07-7.222 0-13.077 5.851-13.077 13.07 0 7.218 5.855 13.07 13.077 13.07z"/><path fill="#131735" d="M126.133 98.523a14.287 14.287 0 01-9.883-3.972 14.27 14.27 0 018.69-24.521 14.283 14.283 0 0115.363 12.431 14.265 14.265 0 01-2.702 10.298 14.283 14.283 0 01-11.468 5.764zm.061-27.244a13.052 13.052 0 00-10.631 5.471 13.033 13.033 0 00-2.246 9.705A13.02 13.02 0 00130 96.728a13.024 13.024 0 006.089-4.017 13.007 13.007 0 00-2.898-19.37 13.026 13.026 0 00-6.997-2.062zm-40.766 90.886s5.919-30.473 27.823-41.456c0 0-10.565-2.175-24.757 23.066 0 0-1.65 3.866-4.264 11.566.01-.014.35 4.844 1.198 6.824zm-20.968-3.019h-.07a.597.597 0 01-.531-.661c2.973-27.044 14.984-41.856 24.533-49.519 10.37-8.319 19.891-10.196 20.292-10.27a.602.602 0 01.224 1.183c-.093 0-9.675 1.91-19.812 10.066-9.354 7.503-21.117 22.069-24.04 48.666a.607.607 0 01-.596.535z"/><path fill="#131735" d="M82.641 162.188a.763.763 0 01-.135 0 .615.615 0 01-.383-.261.604.604 0 01-.083-.457c2.33-10.484 7.256-24.966 17.304-34.431 6.059-5.71 11.074-6.87 11.284-6.917a.605.605 0 01.625.248.6.6 0 01.092.218.586.586 0 01-.247.623.601.601 0 01-.219.09c-.046 0-4.958 1.164-10.793 6.684-5.397 5.123-12.71 15.115-16.881 33.751a.603.603 0 01-.564.452zm-1.025 2.152a.59.59 0 01-.177-.028l-17.156-5.189a.606.606 0 01-.424-.517.598.598 0 01.316-.589.61.61 0 01.458-.045l17.155 5.194a.601.601 0 01-.172 1.174zm-11.451 12.977a.606.606 0 01-.252-.052c-9.28-4.28-5.047-16.209-5.005-16.33a.59.59 0 01.309-.353.606.606 0 01.47-.023.605.605 0 01.342.321.6.6 0 01.006.469c-.636 1.955-.95 4-.932 6.056.089 4.224 1.865 7.168 5.327 8.757a.596.596 0 01.334.673.6.6 0 01-.585.472l-.014.01zm5.932 1.439a1.747 1.747 0 01-1.286-.578c-1.524-1.625-1.258-6.567-1.22-7.126a.603.603 0 01.396-.566.618.618 0 01.477.03.6.6 0 01.324.61c-.121 1.91 0 5.292.904 6.228a.52.52 0 00.406.2c1.085 0 2.549-5.44 3.127-11.644a.599.599 0 01.655-.543.601.601 0 01.543.654c-.261 2.991-1.417 12.735-4.326 12.735zm18.074-22.153a.602.602 0 01-.172-1.174l15.38-4.509a.602.602 0 01.34 1.151l-15.38 4.509a.56.56 0 01-.168.023zm1.58 14.975s8.897 1.7 22.702 3.261c0 0 3.481.931 6.249-3.769a9.66 9.66 0 01-.932 5.725 6.549 6.549 0 01-5.905 3.596c-3.295-.028-9.787-.652-22.193-3.442l.08-5.371zm88.056 2.124h-.312c-1.44-.051-2.903-.163-4.316-.27-1.295-.098-2.633-.2-3.942-.256a.605.605 0 01-.576-.627.604.604 0 01.627-.575c1.328.061 2.68.163 3.98.261 1.398.107 2.852.214 4.269.27.541 0 2.307 0 2.559-.959.2-.783-.774-1.57-1.757-2.045a31.462 31.462 0 00-18.61-2.818.601.601 0 01-.191-1.188 32.691 32.691 0 0119.327 2.925c1.823.885 2.717 2.166 2.396 3.424-.322 1.257-1.561 1.858-3.454 1.858zm-18.129 2.329c-1.738 0-3.514-.191-4.805-.778-2.983-1.365-3.262-4.457-3.015-5.901a.604.604 0 01.699-.466.594.594 0 01.466.694c-.023.144-.531 3.288 2.33 4.597 3.137 1.435 9.988.126 10.053.112.341-.049.673-.145.988-.284-.336-.28-1.585-.997-6.119-2.106a.603.603 0 11.289-1.169c6.655 1.631 7.172 2.59 7.135 3.363-.047.974-1.477 1.291-2.088 1.398a35.022 35.022 0 01-5.933.54z"/><path fill="#254682" d="M74.788 259.31c5.457 0 9.88-4.421 9.88-9.875 0-5.453-4.423-9.874-9.88-9.874-5.457 0-9.88 4.421-9.88 9.874 0 5.454 4.423 9.875 9.88 9.875z"/><path fill="#131735" d="M114.407 119.563a.601.601 0 01-.27-1.136c.233-.117 5.732-2.996 5.014-10.858-.699-7.732-7.512-7.849-7.801-7.849a.599.599 0 01-.601-.6.6.6 0 01.601-.601c2.833 0 8.356 1.863 8.999 8.943.415 4.532-1.137 7.56-2.512 9.316a10.388 10.388 0 01-3.164 2.743.603.603 0 01-.266.042z"/><path fill="#27AAE1" d="M145.195 278.873l-8.468 11.361h8.799l5.056-7.061-5.387-4.3z"/><path fill="#131735" d="M158.873 294.813h-30.652c-2.913 0-4.581-.559-5.127-1.71-.545-1.15.504-2.464.55-2.515.853-1.015.545-5.305.149-7.774-.498-2.557-.373-3.913.42-4.383.261-.126.555-.168.841-.122.287.045.553.177.762.378a.509.509 0 01.079.075c.541.642 1.906 1.276 3.85 1.774a5.846 5.846 0 005.387-1.211 6.777 6.777 0 001.865-3.26 2.096 2.096 0 011.175-1.379 2.092 2.092 0 011.812.056c3.048 1.593 5.388 3.507 7.653 5.361 3.01 2.455 5.853 4.779 9.978 6.009 5.029 1.504 6.692 3.475 7.2 4.867a2.218 2.218 0 01-.852 2.562c-1.851 1.258-4.959 1.272-5.09 1.272zm-34.022-15.325c-.074.145-.293.806.159 3.116.191 1.179 1.044 7.029-.42 8.767-.163.186-.564.81-.368 1.234.14.303.811 1.006 4.013 1.006h30.652c.028 0 2.871 0 4.451-1.076a.998.998 0 00.392-1.155c-.336-.932-1.622-2.692-6.413-4.127-4.358-1.3-7.289-3.694-10.393-6.232-2.219-1.812-4.512-3.685-7.457-5.227a.909.909 0 00-1.086.218.91.91 0 00-.187.346 7.972 7.972 0 01-2.227 3.857 6.998 6.998 0 01-6.497 1.486c-2.2-.569-3.691-1.277-4.428-2.115a.73.73 0 00-.205-.098h.014z"/><path fill="#131735" d="M161.013 291.622c-.178 0-.356-.013-.532-.037h-36.352a.601.601 0 110-1.202h36.529c.285.051.895.051 1.077-.172.056-.075.205-.377-.205-1.286a.598.598 0 01.342-.723.602.602 0 01.758.257c.489 1.09.503 1.938.046 2.52a2.063 2.063 0 01-1.663.643z"/><path fill="#27AAE1" d="M75.501 270.112l-13.884 2.855 6.576 5.85 8.473-1.914-1.165-6.791z"/><path fill="#131735" d="M80.082 293.574a2.055 2.055 0 01-.293 0c-2.247-.312-4.577-2.367-4.661-2.45l-22.893-20.369c-2.176-1.938-3.052-3.466-2.68-4.658.373-1.193 2.014-1.5 2.084-1.509 1.314-.191 3.938-3.601 5.285-5.706 1.323-2.246 2.33-3.172 3.23-3a1.433 1.433 0 011.03 1.257.424.424 0 010 .108c0 .843.578 2.221 1.696 3.889a5.726 5.726 0 004.828 2.674 6.774 6.774 0 003.58-1.197 2.088 2.088 0 011.797-.246 2.094 2.094 0 011.316 1.247c1.212 3.214 1.687 6.2 2.148 9.088.61 3.838 1.189 7.452 3.454 11.123 2.754 4.462 2.684 7.042 2.139 8.417a2.213 2.213 0 01-2.06 1.332zm-20.19-36.537c-.153.061-.76.41-1.957 2.436-.643 1.006-3.9 5.944-6.147 6.265-.247.037-.96.233-1.095.68-.098.317-.066 1.29 2.33 3.419l22.888 20.369c.023 0 2.158 1.9 4.04 2.157a1.006 1.006 0 001.063-.601c.364-.932.583-3.088-2.046-7.346-2.386-3.866-2.983-7.606-3.616-11.561-.466-2.827-.933-5.752-2.088-8.85a.884.884 0 00-1.32-.419 8.018 8.018 0 01-4.226 1.397 6.986 6.986 0 01-5.845-3.209c-1.267-1.863-1.906-3.405-1.901-4.518a.996.996 0 00-.08-.219z"/><path fill="#131735" d="M80.245 290.774c-.89 0-1.598-.787-1.78-1.01l-27.162-24.17a.605.605 0 01-.066-.862.61.61 0 01.423-.201.596.596 0 01.44.164l27.2 24.221.078.084c.177.228.63.638.932.587.089 0 .401-.145.7-1.095a.605.605 0 011.108-.096.593.593 0 01.038.459c-.359 1.142-.909 1.784-1.636 1.915-.091.009-.183.01-.275.004z"/><path fill="#fff" d="M115.195 216.895h-.117a.607.607 0 01-.466-.708l5.435-27.356a.604.604 0 011.183.233l-5.439 27.356a.596.596 0 01-.596.475z"/><path fill="#27AAE1" d="M142.977 115.911c-.783-11.179-6.059-15.404-10.543-16.95-.426.311-.867.6-1.323.866 5.732 3.387 6.65 10.714 6.65 10.714l3.99 46.304c1.104 10.56-2.713 12.576-2.713 12.576l.192 4.146c8.3 0 8.146-5.799 8.146-5.799 1.142-4.174-4.399-51.857-4.399-51.857z"/><path fill="#131735" d="M113.904 94.243a3.988 3.988 0 10-3.989-3.987 3.988 3.988 0 003.989 3.987z"/><path fill="#131735" d="M112.79 87.372a3.988 3.988 0 100-7.974 3.988 3.988 0 100 7.974z"/><path fill="#131735" d="M109.914 90.255a3.988 3.988 0 100-7.974 3.988 3.988 0 100 7.974z"/><path fill="#131735" d="M107.845 86.264a3.988 3.988 0 100-7.975 3.988 3.988 0 100 7.975z"/><path fill="#131735" d="M108.796 80.935a3.989 3.989 0 003.99-3.987 3.989 3.989 0 00-7.979 0 3.988 3.988 0 003.989 3.987z"/><path fill="#131735" d="M111.154 75.942a3.988 3.988 0 10-3.989-3.987 3.988 3.988 0 003.989 3.987z"/><path fill="#131735" d="M114.687 71.954a3.988 3.988 0 100-7.974 3.988 3.988 0 100 7.974z"/><path fill="#131735" d="M119.818 68.587a3.988 3.988 0 10-3.989-3.987 3.988 3.988 0 003.989 3.987z"/><path fill="#131735" d="M124.94 67.567a3.989 3.989 0 003.99-3.987 3.989 3.989 0 00-7.979 0 3.988 3.988 0 003.989 3.987z"/><path fill="#131735" d="M129.605 68.587a3.989 3.989 0 003.99-3.987 3.989 3.989 0 00-7.979 0 3.988 3.988 0 003.989 3.987z"/><path fill="#131735" d="M133.599 71.07a3.988 3.988 0 10-3.989-3.988 3.988 3.988 0 003.989 3.988zM112.79 82.602a3.988 3.988 0 100-7.974 3.988 3.988 0 100 7.974z"/><path fill="#131735" d="M117.898 83.385a3.988 3.988 0 100-7.974 3.988 3.988 0 100 7.974z"/><path fill="#131735" d="M115.829 87.773a3.988 3.988 0 100-7.974 3.988 3.988 0 100 7.974zm7.298-6.838a3.989 3.989 0 003.99-3.987 3.989 3.989 0 00-7.979 0 3.988 3.988 0 003.989 3.987z"/><path fill="#131735" d="M119.138 78.615a3.988 3.988 0 100-7.974 3.989 3.989 0 00-3.99 3.987 3.989 3.989 0 003.99 3.987z"/><path fill="#131735" d="M119.818 72.574a3.988 3.988 0 10-3.989-3.987 3.988 3.988 0 003.989 3.987z"/><path fill="#131735" d="M127.116 71.554a3.988 3.988 0 10-3.989-3.987 3.988 3.988 0 003.989 3.987z"/><path fill="#131735" d="M131.111 74.624a3.988 3.988 0 100-7.975 3.988 3.988 0 100 7.975z"/><path fill="#131735" d="M133.264 78.261a3.988 3.988 0 100-7.974 3.989 3.989 0 00-3.99 3.987 3.989 3.989 0 003.99 3.987z"/><path fill="#131735" d="M135.1 80.553a3.988 3.988 0 100-7.974 3.988 3.988 0 100 7.974z"/><path fill="#131735" d="M138.265 80.935a3.988 3.988 0 100-7.974 3.989 3.989 0 00-3.99 3.987 3.989 3.989 0 003.99 3.987z"/><path fill="#131735" d="M137.258 73.808a3.988 3.988 0 10-3.989-3.987 3.988 3.988 0 003.989 3.987z"/><path fill="#131735" d="M140.945 76.79a3.988 3.988 0 100-7.975 3.988 3.988 0 100 7.974z"/><path fill="#131735" d="M141.247 81.312a3.988 3.988 0 100-7.974 3.988 3.988 0 100 7.974z"/><path fill="#131735" d="M138.642 78.853a8.723 8.723 0 00-.997.065 9.897 9.897 0 012.139 5.315 6.603 6.603 0 01-.182 1.965c2.759-.288 4.87-1.802 4.87-3.642.005-2.045-2.61-3.703-5.83-3.703zm2.303-5.045a3.988 3.988 0 100-7.974 3.988 3.988 0 100 7.974z"/><path fill="#131735" d="M136.95 70.636a3.988 3.988 0 10-3.989-3.987 3.988 3.988 0 003.989 3.987z"/><path fill="#131735" d="M133.264 65.834a3.988 3.988 0 100-7.974 3.989 3.989 0 00-3.99 3.987 3.989 3.989 0 003.99 3.987z"/><path fill="#131735" d="M127.797 63.975a3.988 3.988 0 10-3.989-3.987 3.988 3.988 0 003.989 3.987z"/><path fill="#131735" d="M121.887 65.41a3.988 3.988 0 10-3.989-3.987 3.988 3.988 0 003.989 3.987z"/><path fill="#131735" d="M114.687 66.267a3.988 3.988 0 100-7.974 3.988 3.988 0 100 7.974z"/><path fill="#131735" d="M110.697 70.636a3.988 3.988 0 10-3.989-3.987 3.988 3.988 0 003.989 3.987z"/><path fill="#131735" d="M107.314 75.057a3.988 3.988 0 100-7.975 3.988 3.988 0 100 7.975z"/><path fill="#131735" d="M104.424 80.446a3.988 3.988 0 10-3.989-3.987 3.988 3.988 0 003.989 3.987z"/><path fill="#131735" d="M103.856 86.59a3.988 3.988 0 100-7.975 3.988 3.988 0 100 7.975z"/><path fill="#131735" d="M107.314 92.277a3.988 3.988 0 100-7.974 3.988 3.988 0 100 7.974z"/><path fill="#131735" d="M110.539 94.564a3.988 3.988 0 100-7.974 3.988 3.988 0 100 7.974zm3.365-18.003a3.988 3.988 0 10-3.989-3.987 3.988 3.988 0 003.989 3.987z"/><path fill="#131735" d="M116.956 75.942a3.988 3.988 0 10-3.989-3.987 3.988 3.988 0 003.989 3.987z"/><path fill="#131735" d="M113.904 79.617a3.988 3.988 0 10-3.989-3.988 3.988 3.988 0 003.989 3.988zm8.184-2.669a3.988 3.988 0 100-7.975 3.988 3.988 0 100 7.975z"/><path fill="#131735" d="M127.116 76.948a3.988 3.988 0 10-3.989-3.987 3.988 3.988 0 003.989 3.987z"/><path fill="#131735" d="M130.272 79.617a3.988 3.988 0 100-7.975 3.988 3.988 0 100 7.975zm2.036 8.174a1.063 1.063 0 100-2.125 1.063 1.063 0 000 2.125zm3.859 0a1.063 1.063 0 100-2.125 1.063 1.063 0 000 2.125z"/><path fill="#fff" d="M93.962 212.815a.308.308 0 01-.2-.075l-4.894-4.332a.289.289 0 01-.103-.206.297.297 0 01.075-.218.303.303 0 01.424-.027l4.88 4.336a.295.295 0 01.1.207.297.297 0 01-.17.286.293.293 0 01-.112.029zm-1.264 1.625h-.027l-5.593-.503a.296.296 0 01-.162-.527.303.303 0 01.218-.069l5.593.499a.308.308 0 01.27.33.299.299 0 01-.299.27z"/><path fill="#495B68" d="M329.767 49.797H170.548a2.087 2.087 0 00-2.088 2.087V77.59c0 1.152.935 2.086 2.088 2.086h159.219a2.087 2.087 0 002.088-2.086V51.884a2.087 2.087 0 00-2.088-2.087z" opacity=".2"/><path fill="#fff" d="M326.938 46.597H167.719a2.087 2.087 0 00-2.088 2.086v25.708c0 1.152.935 2.086 2.088 2.086h159.219a2.088 2.088 0 002.088-2.087V48.684a2.087 2.087 0 00-2.088-2.086z"/><path fill="#414042" d="M326.937 76.738H167.724a2.358 2.358 0 01-2.354-2.329V48.683a2.35 2.35 0 012.354-2.328h159.213a2.332 2.332 0 012.331 2.329v25.702a2.325 2.325 0 01-.675 1.662 2.32 2.32 0 01-1.656.69zm-159.213-29.88a1.83 1.83 0 00-1.827 1.826v25.702a1.828 1.828 0 001.827 1.83h159.213a1.831 1.831 0 001.827-1.83V48.684a1.83 1.83 0 00-1.827-1.826H167.724z"/><path fill="#FBE6EA" d="M199.276 62.112c0-6.413-5.202-11.612-11.619-11.612s-11.619 5.2-11.619 11.612c0 6.414 5.202 11.613 11.619 11.613s11.619-5.2 11.619-11.613z"/><path fill="#FE7683" d="M186.725 74.074a11.965 11.965 0 01-11.739-14.295 11.96 11.96 0 019.404-9.398 11.975 11.975 0 0112.286 5.086 11.958 11.958 0 012.017 6.645 11.983 11.983 0 01-11.968 11.962zm0-23.225a11.273 11.273 0 00-10.412 6.953 11.255 11.255 0 002.443 12.274 11.271 11.271 0 0019.238-7.964 11.284 11.284 0 00-11.269-11.272v.01z"/><path fill="#FE7683" d="M186.725 69.006a1.67 1.67 0 01-1.668-1.668v-1.127h3.337v1.132a1.67 1.67 0 01-1.669 1.663zm-.969-2.1v.432a.968.968 0 001.655.686.972.972 0 00.284-.686v-.433h-1.939z"/><path fill="#FE7683" d="M191.926 66.92H181.5a.88.88 0 01-.88-.881v-.662a.877.877 0 01.58-.827.883.883 0 01.352-.053.386.386 0 00.331-.13.613.613 0 00.181-.434v-2.706a4.657 4.657 0 013.528-4.513.255.255 0 00.201-.242v-.322a.947.947 0 011.897 0v.326a.246.246 0 00.195.242 4.66 4.66 0 013.505 4.51v2.794a.5.5 0 00.18.35.497.497 0 00.375.116.934.934 0 01.899.931v.606a.896.896 0 01-.273.638.898.898 0 01-.645.256zM181.5 65.195a.174.174 0 00-.125.051.164.164 0 00-.042.06.159.159 0 00-.014.07v.662a.182.182 0 00.181.182h10.426a.208.208 0 00.205-.21v-.606a.198.198 0 00-.058-.148.204.204 0 00-.147-.061 1.198 1.198 0 01-1.249-1.188v-2.795a3.946 3.946 0 00-2.978-3.828.96.96 0 01-.722-.932v-.326a.254.254 0 00-.25-.286.253.253 0 00-.241.18.254.254 0 00-.008.106v.321a.962.962 0 01-.732.932 3.939 3.939 0 00-2.996 3.833v2.707a1.311 1.311 0 01-.397.931 1.143 1.143 0 01-.843.326l-.01.019z"/><path fill="#FBE6EA" d="M228.395 58.786h-20.632a1.633 1.633 0 01-1.632-1.63 1.63 1.63 0 011.632-1.63h20.632a1.632 1.632 0 011.153 2.783 1.632 1.632 0 01-1.153.477zm33.425 0h-25.292a1.633 1.633 0 01-1.632-1.63 1.63 1.63 0 011.632-1.63h25.292a1.633 1.633 0 011.632 1.63 1.63 1.63 0 01-1.632 1.63zm27.162 9.782h-81.219a1.633 1.633 0 01-1.632-1.63 1.63 1.63 0 011.632-1.63h81.219a1.63 1.63 0 110 3.26z"/></g><defs><clipPath id="clip0"><path fill="#fff" d="M0 .535h508v310.32H0z"/></clipPath></defs></svg>